<svg version="1.1" id="Layer_1" xmlns="http://www.w3.org/2000/svg" xmlns:xlink="http://www.w3.org/1999/xlink" x="0px" y="0px"
	 viewBox="0 0 1254 1254" enable-background="new 0 0 1254 1254" xml:space="preserve">
<title>Code UX</title>
<defs>
	<clipPath id="favicon-round">
		<rect x="1" y="1" width="1253" height="1253" rx="627" ry="627"/>
	</clipPath>
</defs>
<g clip-path="url(#favicon-round)">
<path fill="#000000" opacity="1.000000" stroke="none"
	d="
M817.000000,1255.000000 
	C544.666687,1255.000000 272.833344,1255.000000 1.000000,1255.000000 
	C1.000000,837.000000 1.000000,419.000000 1.000000,1.000000 
	C419.000000,1.000000 837.000000,1.000000 1255.000000,1.000000 
	C1255.000000,419.000000 1255.000000,837.000000 1255.000000,1255.000000 
	C1109.166626,1255.000000 963.333313,1255.000000 817.000000,1255.000000 
M822.577881,883.038757 
	C859.250854,865.238647 886.895447,837.820740 907.228882,802.855713 
	C946.722229,734.943970 948.513855,629.974304 884.721619,558.044800 
	C858.515869,528.496216 826.538696,508.099518 788.109436,498.099030 
	C766.584717,492.497589 744.665649,491.960663 722.627930,492.143616 
	C701.633423,492.317902 680.636169,492.241364 659.640625,492.157837 
	C650.133484,492.120026 644.092346,485.916504 644.057617,476.464752 
	C644.033691,469.966125 644.351074,463.450439 643.968262,456.974731 
	C643.729675,452.939362 645.096252,451.310181 648.877563,449.904053 
	C672.333862,441.181641 686.785461,412.884491 680.405090,388.788300 
	C673.243530,361.741730 647.997803,344.278839 621.876770,348.303375 
	C597.056763,352.127411 579.160767,370.064575 575.985657,394.300049 
	C572.849854,418.235504 585.672302,440.251373 608.810425,450.286621 
	C611.441101,451.427551 612.093323,452.845032 612.025330,455.494598 
	C611.854187,462.155243 611.996399,468.823700 611.995667,475.489044 
	C611.994446,486.404175 606.362305,492.128540 595.437256,492.150757 
	C571.608643,492.199188 547.778992,492.314117 523.951538,492.146881 
	C505.676880,492.018646 487.721680,494.014771 470.098358,498.905853 
	C408.425110,516.022339 364.952698,554.383301 338.191345,612.122986 
	C323.337189,644.171936 318.997925,678.113464 320.705414,713.061646 
	C323.266571,765.483093 343.809052,809.632629 381.852905,845.692566 
	C386.547302,850.142212 387.340088,853.645325 384.394958,859.405334 
	C376.678345,874.497314 368.940247,889.578369 361.146881,904.630798 
	C358.976776,908.822205 357.320801,913.017822 360.952393,917.128723 
	C364.546112,921.196838 368.766235,920.326599 373.293579,918.530151 
	C395.718750,909.631531 418.253113,901.006897 440.645813,892.028442 
	C446.213928,889.795837 451.370331,889.515015 457.097290,891.350220 
	C474.310211,896.866089 491.986511,900.165283 510.096039,900.189270 
	C590.413452,900.295837 670.731323,900.377502 751.048401,900.175415 
	C775.875854,900.112976 799.495544,894.088867 822.577881,883.038757 
M285.848358,785.679260 
	C292.410065,786.930115 298.971771,788.181030 306.682007,789.650879 
	C305.348450,785.233582 304.586365,782.561462 303.736267,779.917603 
	C298.340485,763.137207 295.604401,745.959961 295.702393,728.311401 
	C295.801361,710.487549 295.816467,692.661987 295.680664,674.838623 
	C295.557831,658.720459 297.816010,642.973206 302.329254,627.523987 
	C303.618439,623.111084 304.887299,618.692200 306.403778,613.452698 
	C301.921326,613.821289 298.080048,613.752319 294.404877,614.499939 
	C263.757050,620.735046 242.112747,647.360901 242.042923,678.737854 
	C242.011047,693.064026 242.561676,707.414551 241.910904,721.711365 
	C240.644058,749.542664 258.606079,776.127197 285.848358,785.679260 
M1005.189453,646.310303 
	C992.588867,625.177551 965.307800,609.527039 949.666870,614.601624 
	C950.116577,616.167236 950.509338,617.765381 951.032166,619.319824 
	C957.301758,637.960632 960.166321,657.095581 959.911316,676.772217 
	C959.678345,694.750549 960.121948,712.740540 959.708801,730.712524 
	C959.491699,740.159668 958.646667,749.676941 957.049194,758.984680 
	C955.374939,768.740112 952.460083,778.282593 949.916260,788.613342 
	C951.874146,788.613342 953.806274,788.720276 955.723694,788.597351 
	C983.869568,786.792114 1010.684509,761.453552 1012.784180,733.377563 
	C1014.060059,716.317871 1013.422852,699.116943 1013.704712,681.980469 
	C1013.908203,669.611633 1011.601685,657.847412 1005.189453,646.310303 
M640.820923,279.500244 
	C640.808777,272.682983 640.843506,265.865265 640.772827,259.048615 
	C640.682617,250.348114 635.371704,244.457489 627.785950,244.529846 
	C619.934265,244.604752 614.916626,250.183914 614.884583,259.076813 
	C614.829468,274.374207 614.828003,289.671967 614.873047,304.969421 
	C614.898071,313.454224 620.057922,318.899017 627.805359,318.799774 
	C635.656738,318.699219 640.828796,313.258972 640.865112,304.941589 
	C640.900696,296.794647 640.841980,288.647308 640.820923,279.500244 
M755.055603,301.361267 
	C748.167053,296.321564 741.764343,296.511047 735.787170,302.363251 
	C726.156433,311.792816 716.667786,321.368927 707.198364,330.961395 
	C701.353210,336.882477 701.054932,344.802826 706.294556,350.114502 
	C712.047607,355.946655 720.095093,355.920746 726.270264,349.863373 
	C735.773010,340.541962 745.226074,331.168396 754.599548,321.717102 
	C761.169434,315.092651 761.377014,309.159821 755.055603,301.361267 
M522.663391,303.811646 
	C522.314697,303.455078 521.974304,303.090027 521.616150,302.743164 
	C515.296204,296.622223 506.511047,296.291901 501.200073,301.973145 
	C495.616455,307.946075 496.348175,315.789215 502.914520,322.228485 
	C512.170959,331.305664 521.314331,340.498047 530.541138,349.605591 
	C536.809021,355.792480 544.694580,356.002380 550.413208,350.212036 
	C555.909363,344.646942 555.679810,336.933685 549.607849,330.766357 
	C540.862244,321.883423 531.987976,313.127014 522.663391,303.811646 
z"/>
<path fill="#FCFBFC" opacity="1.000000" stroke="none" 
	d="
M822.225952,883.168945 
	C799.495544,894.088867 775.875854,900.112976 751.048401,900.175415 
	C670.731323,900.377502 590.413452,900.295837 510.096039,900.189270 
	C491.986511,900.165283 474.310211,896.866089 457.097290,891.350220 
	C451.370331,889.515015 446.213928,889.795837 440.645813,892.028442 
	C418.253113,901.006897 395.718750,909.631531 373.293579,918.530151 
	C368.766235,920.326599 364.546112,921.196838 360.952393,917.128723 
	C357.320801,913.017822 358.976776,908.822205 361.146881,904.630798 
	C368.940247,889.578369 376.678345,874.497314 384.394958,859.405334 
	C387.340088,853.645325 386.547302,850.142212 381.852905,845.692566 
	C343.809052,809.632629 323.266571,765.483093 320.705414,713.061646 
	C318.997925,678.113464 323.337189,644.171936 338.191345,612.122986 
	C364.952698,554.383301 408.425110,516.022339 470.098358,498.905853 
	C487.721680,494.014771 505.676880,492.018646 523.951538,492.146881 
	C547.778992,492.314117 571.608643,492.199188 595.437256,492.150757 
	C606.362305,492.128540 611.994446,486.404175 611.995667,475.489044 
	C611.996399,468.823700 611.854187,462.155243 612.025330,455.494598 
	C612.093323,452.845032 611.441101,451.427551 608.810425,450.286621 
	C585.672302,440.251373 572.849854,418.235504 575.985657,394.300049 
	C579.160767,370.064575 597.056763,352.127411 621.876770,348.303375 
	C647.997803,344.278839 673.243530,361.741730 680.405090,388.788300 
	C686.785461,412.884491 672.333862,441.181641 648.877563,449.904053 
	C645.096252,451.310181 643.729675,452.939362 643.968262,456.974731 
	C644.351074,463.450439 644.033691,469.966125 644.057617,476.464752 
	C644.092346,485.916504 650.133484,492.120026 659.640625,492.157837 
	C680.636169,492.241364 701.633423,492.317902 722.627930,492.143616 
	C744.665649,491.960663 766.584717,492.497589 788.109436,498.099030 
	C826.538696,508.099518 858.515869,528.496216 884.721619,558.044800 
	C948.513855,629.974304 946.722229,734.943970 907.228882,802.855713 
	C886.895447,837.820740 859.250854,865.238647 822.225952,883.168945 
M736.677856,539.758179 
	C735.183533,539.689758 733.689270,539.561890 732.194946,539.561401 
	C665.102356,539.539368 598.009766,539.521790 530.917175,539.532959 
	C526.766907,539.533630 522.616699,539.771484 517.514221,539.650696 
	C509.411102,540.547241 501.133911,540.674988 493.232849,542.463928 
	C438.118958,554.942810 400.041290,588.042725 378.901672,640.018494 
	C361.949554,681.698669 361.112885,724.310120 381.119995,764.979370 
	C409.282196,822.225891 457.597778,851.070190 520.528015,852.492615 
	C593.142212,854.133911 665.822388,852.951538 738.473267,852.752991 
	C748.093445,852.726685 757.839111,852.014832 767.306885,850.361572 
	C834.893921,838.558899 884.547119,781.840576 888.456238,715.379822 
	C892.391541,648.474792 867.203979,595.917847 809.879883,560.073853 
	C787.836182,546.290222 763.444763,539.451721 736.677856,539.758179 
M626.793762,372.189117 
	C625.485107,372.423950 624.172729,372.639923 622.868347,372.896545 
	C611.223511,375.187836 601.635376,384.760345 599.945557,395.772430 
	C597.950134,408.775543 603.397522,420.156281 614.636230,426.464264 
	C624.957825,432.257507 638.154663,430.933197 647.256836,423.190735 
	C656.693176,415.164001 660.115723,403.037445 656.158875,391.649506 
	C652.089844,379.938538 641.641785,372.792908 626.793762,372.189117 
z"/>
<path fill="#FBFAFB" opacity="1.000000" stroke="none" 
	d="
M285.488708,785.522095 
	C258.606079,776.127197 240.644058,749.542664 241.910904,721.711365 
	C242.561676,707.414551 242.011047,693.064026 242.042923,678.737854 
	C242.112747,647.360901 263.757050,620.735046 294.404877,614.499939 
	C298.080048,613.752319 301.921326,613.821289 306.403778,613.452698 
	C304.887299,618.692200 303.618439,623.111084 302.329254,627.523987 
	C297.816010,642.973206 295.557831,658.720459 295.680664,674.838623 
	C295.816467,692.661987 295.801361,710.487549 295.702393,728.311401 
	C295.604401,745.959961 298.340485,763.137207 303.736267,779.917603 
	C304.586365,782.561462 305.348450,785.233582 306.682007,789.650879 
	C298.971771,788.181030 292.410065,786.930115 285.488708,785.522095 
z"/>
<path fill="#FBFBFB" opacity="1.000000" stroke="none" 
	d="
M1005.389771,646.619629 
	C1011.601685,657.847412 1013.908203,669.611633 1013.704712,681.980469 
	C1013.422852,699.116943 1014.060059,716.317871 1012.784180,733.377563 
	C1010.684509,761.453552 983.869568,786.792114 955.723694,788.597351 
	C953.806274,788.720276 951.874146,788.613342 949.916260,788.613342 
	C952.460083,778.282593 955.374939,768.740112 957.049194,758.984680 
	C958.646667,749.676941 959.491699,740.159668 959.708801,730.712524 
	C960.121948,712.740540 959.678345,694.750549 959.911316,676.772217 
	C960.166321,657.095581 957.301758,637.960632 951.032166,619.319824 
	C950.509338,617.765381 950.116577,616.167236 949.666870,614.601624 
	C965.307800,609.527039 992.588867,625.177551 1005.389771,646.619629 
z"/>
<path fill="#00E9A8" opacity="1.000000" stroke="none" 
	d="
M640.822754,280.000183 
	C640.841980,288.647308 640.900696,296.794647 640.865112,304.941589 
	C640.828796,313.258972 635.656738,318.699219 627.805359,318.799774 
	C620.057922,318.899017 614.898071,313.454224 614.873047,304.969421 
	C614.828003,289.671967 614.829468,274.374207 614.884583,259.076813 
	C614.916626,250.183914 619.934265,244.604752 627.785950,244.529846 
	C635.371704,244.457489 640.682617,250.348114 640.772827,259.048615 
	C640.843506,265.865265 640.808777,272.682983 640.822754,280.000183 
z"/>
<path fill="#00EAAB" opacity="1.000000" stroke="none" 
	d="
M755.314697,301.628815 
	C761.377014,309.159821 761.169434,315.092651 754.599548,321.717102 
	C745.226074,331.168396 735.773010,340.541962 726.270264,349.863373 
	C720.095093,355.920746 712.047607,355.946655 706.294556,350.114502 
	C701.054932,344.802826 701.353210,336.882477 707.198364,330.961395 
	C716.667786,321.368927 726.156433,311.792816 735.787170,302.363251 
	C741.764343,296.511047 748.167053,296.321564 755.314697,301.628815 
z"/>
<path fill="#00EAAB" opacity="1.000000" stroke="none" 
	d="
M522.916016,304.064148 
	C531.987976,313.127014 540.862244,321.883423 549.607849,330.766357 
	C555.679810,336.933685 555.909363,344.646942 550.413208,350.212036 
	C544.694580,356.002380 536.809021,355.792480 530.541138,349.605591 
	C521.314331,340.498047 512.170959,331.305664 502.914520,322.228485 
	C496.348175,315.789215 495.616455,307.946075 501.200073,301.973145 
	C506.511047,296.291901 515.296204,296.622223 521.616150,302.743164 
	C521.974304,303.090027 522.314697,303.455078 522.916016,304.064148 
z"/>
<path fill="#010101" opacity="1.000000" stroke="none" 
	d="
M737.238098,539.907410 
	C763.444763,539.451721 787.836182,546.290222 809.879883,560.073853 
	C867.203979,595.917847 892.391541,648.474792 888.456238,715.379822 
	C884.547119,781.840576 834.893921,838.558899 767.306885,850.361572 
	C757.839111,852.014832 748.093445,852.726685 738.473267,852.752991 
	C665.822388,852.951538 593.142212,854.133911 520.528015,852.492615 
	C457.597778,851.070190 409.282196,822.225891 381.119995,764.979370 
	C361.112885,724.310120 361.949554,681.698669 378.901672,640.018494 
	C400.041290,588.042725 438.118958,554.942810 493.232849,542.463928 
	C501.133911,540.674988 509.411102,540.547241 517.649109,540.121399 
	C519.667969,541.063782 521.551453,541.946106 523.435913,541.947937 
	C593.150452,542.017639 662.864990,542.006409 732.579590,542.000305 
	C734.075256,542.000183 735.576904,541.981201 737.056580,541.807922 
	C737.189453,541.792358 737.180969,540.569580 737.238098,539.907410 
M478.449799,660.921875 
	C463.127594,670.332336 453.814941,683.917542 450.359558,701.521606 
	C448.755463,709.694031 452.948456,716.372986 460.423553,717.787720 
	C467.977509,719.217468 474.131500,714.680359 475.766968,706.475708 
	C478.695435,691.784546 489.633606,681.298950 504.426605,679.001953 
	C523.091309,676.103638 540.299622,687.867310 544.225037,706.420166 
	C545.297791,711.490234 547.186707,715.567627 552.521729,717.219910 
	C563.154663,720.512878 571.626343,712.406006 569.451599,700.996460 
	C561.684143,660.245789 516.001770,639.794556 478.449799,660.921875 
M804.300049,712.673523 
	C804.941772,709.007202 806.632568,705.169617 806.066101,701.700562 
	C798.925232,657.966064 747.076477,637.471313 710.998901,663.874634 
	C698.290833,673.175171 690.615295,685.596863 687.257202,700.813049 
	C685.691223,707.908875 687.989075,713.575989 693.256897,716.334473 
	C701.606323,720.706726 710.235718,716.438171 712.169067,706.979675 
	C715.530396,690.535156 730.123535,678.563110 746.780212,678.585083 
	C764.423157,678.608398 777.611938,689.423157 781.042786,706.750793 
	C782.064880,711.912842 784.714905,715.640625 789.879333,717.214966 
	C795.349304,718.882385 800.066406,717.639099 804.300049,712.673523 
z"/>
<path fill="#04EDAF" opacity="1.000000" stroke="none" 
	d="
M627.223816,372.171753 
	C641.641785,372.792908 652.089844,379.938538 656.158875,391.649506 
	C660.115723,403.037445 656.693176,415.164001 647.256836,423.190735 
	C638.154663,430.933197 624.957825,432.257507 614.636230,426.464264 
	C603.397522,420.156281 597.950134,408.775543 599.945557,395.772430 
	C601.635376,384.760345 611.223511,375.187836 622.868347,372.896545 
	C624.172729,372.639923 625.485107,372.423950 627.223816,372.171753 
z"/>
<path fill="#101010" opacity="1.000000" stroke="none" 
	d="
M736.958008,539.832764 
	C737.180969,540.569580 737.189453,541.792358 737.056580,541.807922 
	C735.576904,541.981201 734.075256,542.000183 732.579590,542.000305 
	C662.864990,542.006409 593.150452,542.017639 523.435913,541.947937 
	C521.551453,541.946106 519.667969,541.063782 518.125244,540.245544 
	C522.616699,539.771484 526.766907,539.533630 530.917175,539.532959 
	C598.009766,539.521790 665.102356,539.539368 732.194946,539.561401 
	C733.689270,539.561890 735.183533,539.689758 736.958008,539.832764 
z"/>
<path fill="#00EAAB" opacity="1.000000" stroke="none" 
	d="
M478.761322,660.728638 
	C516.001770,639.794556 561.684143,660.245789 569.451599,700.996460 
	C571.626343,712.406006 563.154663,720.512878 552.521729,717.219910 
	C547.186707,715.567627 545.297791,711.490234 544.225037,706.420166 
	C540.299622,687.867310 523.091309,676.103638 504.426605,679.001953 
	C489.633606,681.298950 478.695435,691.784546 475.766968,706.475708 
	C474.131500,714.680359 467.977509,719.217468 460.423553,717.787720 
	C452.948456,716.372986 448.755463,709.694031 450.359558,701.521606 
	C453.814941,683.917542 463.127594,670.332336 478.761322,660.728638 
z"/>
<path fill="#00EAAB" opacity="1.000000" stroke="none" 
	d="
M804.094604,712.987671 
	C800.066406,717.639099 795.349304,718.882385 789.879333,717.214966 
	C784.714905,715.640625 782.064880,711.912842 781.042786,706.750793 
	C777.611938,689.423157 764.423157,678.608398 746.780212,678.585083 
	C730.123535,678.563110 715.530396,690.535156 712.169067,706.979675 
	C710.235718,716.438171 701.606323,720.706726 693.256897,716.334473 
	C687.989075,713.575989 685.691223,707.908875 687.257202,700.813049 
	C690.615295,685.596863 698.290833,673.175171 710.998901,663.874634 
	C747.076477,637.471313 798.925232,657.966064 806.066101,701.700562 
	C806.632568,705.169617 804.941772,709.007202 804.094604,712.987671
z"/>
</g>
</svg>